<svg id="cloud_1.svg" data-name="cloud 1.svg" xmlns="http://www.w3.org/2000/svg" width="118" height="77" viewBox="0 0 118 77">
  <defs>
    <style>
      .cls-1 {
        fill: #fff;
      }

      .cls-1, .cls-2, .cls-3 {
        fill-rule: evenodd;
      }

      .cls-2 {
        fill: #0d3e60;
      }

      .cls-3 {
        fill: #eb5238;
      }

      .cls-4 {
        fill: #b8a4de;
      }
    </style>
  </defs>
  <path id="cloud" class="cls-1" d="M242,319a27,27,0,1,1-27,27A27,27,0,0,1,242,319Zm37.5-23A37.5,37.5,0,1,1,242,333.5,37.5,37.5,0,0,1,279.5,296Zm39,18A14.5,14.5,0,1,1,304,328.5,14.5,14.5,0,0,1,318.5,314Z" transform="translate(-215 -296)"/>
  <g id="face_1" data-name="face 1">
    <path class="cls-2" d="M259.806,326.42a3.421,3.421,0,1,1-2.644,4A3.391,3.391,0,0,1,259.806,326.42Z" transform="translate(-215 -296)"/>
    <path id="Ellipse_2_copy" data-name="Ellipse 2 copy" class="cls-2" d="M281.57,322.187a3.421,3.421,0,1,1-2.644,4A3.391,3.391,0,0,1,281.57,322.187Z" transform="translate(-215 -296)"/>
    <path class="cls-2" d="M272.909,335.721c5.281-1.028,9.943.094,10.412,2.5s-3.432,5.2-8.714,6.226-9.943-.095-10.412-2.506S267.627,336.748,272.909,335.721Z" transform="translate(-215 -296)"/>
    <path class="cls-3" d="M275.142,340.165a4.8,4.8,0,1,1-4.032,5.664A4.919,4.919,0,0,1,275.142,340.165Z" transform="translate(-215 -296)"/>
    <circle class="cls-4" cx="40.422" cy="46.594" r="2.672"/>
    <circle id="Ellipse_3_copy" data-name="Ellipse 3 copy" class="cls-4" cx="77.36" cy="39.422" r="2.672"/>
  </g>
</svg>
