<svg xmlns="http://www.w3.org/2000/svg" width="54" height="46" viewBox="0 0 54 46">
  <defs>
    <style>
      .cls-1 {
        fill: #fff9df;
        fill-rule: evenodd;
      }
    </style>
  </defs>
  <path id="icon-heart.svg" class="cls-1" d="M809.917,504A15.71,15.71,0,0,0,799,508.376,15.71,15.71,0,0,0,788.083,504,16.3,16.3,0,0,0,772,520.473c0,5.266,4.487,11.829,13.336,19.506a127,127,0,0,0,13.1,9.856,1.054,1.054,0,0,0,1.134,0,126.849,126.849,0,0,0,13.1-9.855C821.513,532.3,826,525.739,826,520.473A16.3,16.3,0,0,0,809.917,504Zm1.383,34.369a126,126,0,0,1-12.3,9.316,125.921,125.921,0,0,1-12.282-9.3c-8.249-7.156-12.609-13.35-12.609-17.912a14.189,14.189,0,0,1,13.974-14.363,13.671,13.671,0,0,1,10.142,4.484,1.055,1.055,0,0,0,1.55,0,13.671,13.671,0,0,1,10.142-4.484,14.188,14.188,0,0,1,13.973,14.363C823.89,525.032,819.537,531.22,811.3,538.369Zm-2.662-28.533-0.04.007a1.055,1.055,0,0,0,.183,2.094,1.079,1.079,0,0,0,.186-0.016l0.021,0A1.055,1.055,0,0,0,808.638,509.836Zm9.669,4.017a10.152,10.152,0,0,0-5.18-3.732,1.055,1.055,0,0,0-.618,2.017,8.358,8.358,0,0,1,5.725,8.025,1.055,1.055,0,1,0,2.109,0A10.652,10.652,0,0,0,818.307,513.853Z" transform="translate(-772 -504)"/>
</svg>
