<svg xmlns="http://www.w3.org/2000/svg" width="29.13" height="35.094" viewBox="0 0 29.13 35.094">
  <defs>
    <style>
      .cls-1 {
        fill: #eb5238;
        fill-rule: evenodd;
      }
    </style>
  </defs>
  <path id="promise_icon.svg" data-name="promise icon.svg" class="cls-1" d="M1318.22,100.933a3.766,3.766,0,0,0-2.16.69,3.838,3.838,0,0,0-1.59-1.745,3.709,3.709,0,0,0-3.65.009,3.974,3.974,0,0,0-1.28,1.175l-0.43-.507c0.55-1.053,1.02-1.952,1.23-2.346,1.38-2.677.35-4.952-1.37-5.816a4.114,4.114,0,0,0-5.36,1.848,4.01,4.01,0,0,0-5.25-.5c-1.55,1.193-2.13,3.638-.25,6,0.67,0.844,1.21,1.526,1.56,1.969-1.24,2.34-2.4,4.547-2.83,5.346a6.96,6.96,0,0,0-3.84,6.508c-0.02,4.811,4.57,12.639,4.76,12.969a1.154,1.154,0,0,0,.99.558h19.69a1.123,1.123,0,1,0-.01-2.245h-19.01c-1.03-1.832-4.16-7.738-4.14-11.271,0.01-2.527,1.26-4.173,3.8-5.035,0.79-.267,1.63-0.562,2.42-0.84,1.1-.388,2.14-0.755,2.79-0.952a1.156,1.156,0,0,1,1.52.46c0.39,0.8-.03,2.157-1.61,3.222a23.435,23.435,0,0,1-3.26,1.622,1.121,1.121,0,0,0-.62,1.467,1.145,1.145,0,0,0,1.49.606c0.07-.029,1.24-0.509,2.36-1.084a7.567,7.567,0,0,1,4.16,4.061,0.02,0.02,0,0,0,.01.02,8.319,8.319,0,0,1,.3.8,1.147,1.147,0,0,0,1.08.774,1.185,1.185,0,0,0,.36-0.056,1.122,1.122,0,0,0,.73-1.416l-0.03-.076a6.348,6.348,0,0,1,6.12.71,1.147,1.147,0,0,0,.76.287,1.16,1.16,0,0,0,.85-0.373,1.11,1.11,0,0,0-.09-1.585,8.707,8.707,0,0,0-8.57-1.089,9.493,9.493,0,0,0-3.52-3.473c1.99-1.779,2.24-3.969,1.54-5.394a3.235,3.235,0,0,0-1.09-1.258c0.32-.611.74-1.418,1.19-2.266l0.75,0.869c0,0.131-.01.264-0.01,0.4v5.38a3.825,3.825,0,0,0,3.87,4.032,4.075,4.075,0,0,0,2.39-.775,3.552,3.552,0,0,0,.43.533,3.631,3.631,0,0,0,2.62,1.074,4.179,4.179,0,0,0,1.82-.424v3.585a11.351,11.351,0,0,1-1.48,5.321,1.108,1.108,0,0,0,.37,1.544,1.151,1.151,0,0,0,1.57-.365,13.459,13.459,0,0,0,1.82-6.5v-11.87C1322.12,102.505,1320.16,100.933,1318.22,100.933Zm-18.31-2.576c-1.01-1.261-.78-2.362-0.15-2.851s1.72-.418,2.73.841c-0.46.868-1.04,1.982-1.67,3.167C1300.56,99.177,1300.25,98.788,1299.91,98.357Zm0.82,7.228-0.66.234c1.81-3.438,4.83-9.171,5.31-10.092,0.74-1.426,1.84-1.69,2.56-1.331s1.11,1.363.37,2.8c-0.25.474-.88,1.68-1.58,3.007a0.013,0.013,0,0,0-.01.014c-0.83,1.576-1.75,3.32-2.23,4.216a4.611,4.611,0,0,0-.87.172C1302.92,104.812,1301.86,105.188,1300.73,105.585Zm11.85,5.556a1.583,1.583,0,0,1-1.09-.408,1.821,1.821,0,0,1-.5-1.379v-5.38a4.971,4.971,0,0,1,.04-0.563V103.4a2.088,2.088,0,0,1,.93-1.57,1.374,1.374,0,0,1,1.37-.009,2.353,2.353,0,0,1,.94,2.151v1.533l0.01,3.849A1.656,1.656,0,0,1,1312.58,111.141Zm7.26-1.057a1.817,1.817,0,0,1-1.82,1.889,1.368,1.368,0,0,1-.98-0.386,2.188,2.188,0,0,1-.48-1.529v-0.7h0l-0.01-3.134v-0.76c0.02-1.566.88-2.28,1.67-2.28,0.81,0,1.62.72,1.62,2.331v4.574h0Z" transform="translate(-1293 -92)"/>
</svg>
